<svg xmlns="http://www.w3.org/2000/svg" width="360" height="640" viewBox="0 0 360 640" font-family="Noto Sans"><title>Glass / Now / compact — illustrative design reference</title><metadata>{&quot;theme&quot;: &quot;glass&quot;, &quot;page&quot;: &quot;Now&quot;, &quot;condition&quot;: &quot;compact&quot;, &quot;viewport&quot;: [360, 640], &quot;fontScale&quot;: 1, &quot;rtl&quot;: false, &quot;effects&quot;: &quot;Subtle&quot;, &quot;contrast&quot;: &quot;Standard&quot;, &quot;insets&quot;: [24, 0, 24, 0], &quot;bodyTop&quot;: 152, &quot;bodyHeight&quot;: 572, &quot;scrollMax&quot;: 108, &quot;font&quot;: &quot;Noto Sans&quot;, &quot;fixture&quot;: &quot;fixture.json&quot;, &quot;scrollOffset&quot;: 0}</metadata><rect x="0" y="0" width="360" height="640" rx="0" fill="#0B1220" fill-opacity="1" stroke="none"/><defs><linearGradient id="sky" x2="0" y2="1"><stop stop-color="#122B58"/><stop offset="1" stop-color="#281A4A"/></linearGradient><radialGradient id="glow"><stop stop-color="#C084FC" stop-opacity=".18"/><stop offset="1" stop-color="#C084FC" stop-opacity="0"/></radialGradient></defs><rect x="0" y="0" width="360" height="640" rx="0" fill="url(#sky)" fill-opacity="1" stroke="none"/><ellipse cx="306.0" cy="260" rx="280" ry="330" fill="url(#glow)"/><text x="16.0" y="44" font-size="20" font-weight="600" fill="#F8FAFF" text-anchor="start" data-field="current.location">Demo Station</text><text x="16.0" y="68" font-size="14" font-weight="400" fill="#C9D7EC" text-anchor="start">Now</text><rect x="16.0" y="92" width="82.0" height="48" rx="12" fill="#3A5E88" fill-opacity="1" stroke="#A6C8FF"/><text x="22.0" y="114" font-size="14" font-weight="600" fill="#F8FAFF" text-anchor="start">Now</text><rect x="24.0" y="136" width="66.0" height="2" rx="0" fill="#F8FAFF" fill-opacity="1" stroke="none"/><text x="104.0" y="114" font-size="14" font-weight="400" fill="#F8FAFF" text-anchor="start">Hourly</text><text x="186.0" y="114" font-size="14" font-weight="400" fill="#F8FAFF" text-anchor="start">Daily</text><text x="268.0" y="114" font-size="14" font-weight="400" fill="#F8FAFF" text-anchor="start">Details</text><defs><clipPath id="body"><rect x="0" y="152" width="360" height="464"/></clipPath></defs><g clip-path="url(#body)"><g transform="translate(0 -108)"><rect x="17.5" y="152" width="325" height="220" rx="24" fill="#31527A" fill-opacity="0.42" stroke="#A6C8FF"/><text x="45.5" y="232" font-size="56" font-weight="500" fill="#F8FAFF" text-anchor="start" data-field="current.temperature">28°</text><g aria-hidden="true" fill="none" stroke="#60A5FA" stroke-width="1.6"><circle cx="292.5" cy="202" r="8"/><path d="M304.50 202.00l4.00 0.00"/><path d="M300.99 210.49l2.83 2.83"/><path d="M292.50 214.00l0.00 4.00"/><path d="M284.01 210.49l-2.83 2.83"/><path d="M280.50 202.00l-4.00 0.00"/><path d="M284.01 193.51l-2.83 -2.83"/><path d="M292.50 190.00l-0.00 -4.00"/><path d="M300.99 193.51l2.83 -2.83"/><path fill="#0B1220" d="M282.5 217c-9 0-9-13 0-13c0-14 21-14 21 0c13-2 15 13 3 13Z"/></g><text x="45.5" y="258" font-size="18" font-weight="400" fill="#F8FAFF" text-anchor="start" data-field="current.condition">Partly cloudy</text><text x="45.5" y="288" font-size="16" font-weight="400" fill="#C9D7EC" text-anchor="start" data-field="current.apparent">Feels 29°</text><rect x="16.0" y="384" width="159.0" height="80" rx="26" fill="#31527A" fill-opacity="0.42" stroke="#A6C8FF"/><text x="30.0" y="412" font-size="14" font-weight="400" fill="#C9D7EC" text-anchor="start">Humidity</text><text x="30.0" y="442" font-size="16" font-weight="400" fill="#F8FAFF" text-anchor="start" data-field="current.humidity">56%</text><rect x="185.0" y="384" width="159.0" height="80" rx="26" fill="#31527A" fill-opacity="0.42" stroke="#A6C8FF"/><text x="199.0" y="412" font-size="14" font-weight="400" fill="#C9D7EC" text-anchor="start">Dew point</text><text x="199.0" y="442" font-size="16" font-weight="400" fill="#F8FAFF" text-anchor="start" data-field="current.dewPoint">18°</text><rect x="16.0" y="474" width="159.0" height="126" rx="26" fill="#31527A" fill-opacity="0.42" stroke="#A6C8FF"/><text x="30.0" y="502" font-size="14" font-weight="400" fill="#C9D7EC" text-anchor="start">Precipitation</text><text x="30.0" y="532" font-size="16" font-weight="400" fill="#F8FAFF" text-anchor="start" data-field="current.precipitationHeadline">No precipitation</text><text x="30.0" y="556" font-size="16" font-weight="400" fill="#F8FAFF" text-anchor="start" data-field="current.precipitationHeadline">indicated</text><text x="30.0" y="580" font-size="12" font-weight="400" fill="#C9D7EC" text-anchor="start" data-field="current.precipitationSupporting">Next 6h · 0.0 mm</text><rect x="185.0" y="474" width="159.0" height="126" rx="26" fill="#31527A" fill-opacity="0.42" stroke="#A6C8FF"/><text x="199.0" y="502" font-size="14" font-weight="400" fill="#C9D7EC" text-anchor="start">Wind</text><text x="199.0" y="532" font-size="16" font-weight="400" fill="#F8FAFF" text-anchor="start" data-field="current.windHeadline">13 km/h</text><text x="199.0" y="556" font-size="12" font-weight="400" fill="#C9D7EC" text-anchor="start" data-field="current.windSupporting">Gusts 23 · SW</text><rect x="16.0" y="612" width="328" height="100" rx="26" fill="#3A5E88" fill-opacity="1" stroke="none"/><text x="30.0" y="638" font-size="12" font-weight="400" fill="#C9D7EC" text-anchor="start" data-field="sourceLine">Model estimate · Offline development fixture</text><text x="30.0" y="662" font-size="12" font-weight="400" fill="#C9D7EC" text-anchor="start" data-field="updatedLine">Updated 9:00 AM</text><text x="30.0" y="686" font-size="12" font-weight="400" fill="#C9D7EC" text-anchor="start" data-field="status">Live weather data. Freshness: unknown.</text></g></g></svg>
