<svg xmlns="http://www.w3.org/2000/svg" width="393" height="852" viewBox="0 0 393 852" font-family="Noto Sans Mono"><title>Terminal / Hourly / primary — illustrative design reference</title><metadata>{&quot;theme&quot;: &quot;terminal&quot;, &quot;page&quot;: &quot;Hourly&quot;, &quot;condition&quot;: &quot;primary&quot;, &quot;viewport&quot;: [393, 852], &quot;fontScale&quot;: 1, &quot;rtl&quot;: false, &quot;effects&quot;: &quot;Off&quot;, &quot;contrast&quot;: &quot;Standard&quot;, &quot;insets&quot;: [24, 0, 24, 0], &quot;bodyTop&quot;: 148, &quot;bodyHeight&quot;: 616, &quot;scrollMax&quot;: 0, &quot;font&quot;: &quot;Noto Sans Mono&quot;, &quot;fixture&quot;: &quot;fixture.json&quot;, &quot;scrollOffset&quot;: 0}</metadata><rect width="393" height="852" fill="#020704"/><rect x="0" y="0" width="393" height="852" rx="0" fill="#020704" fill-opacity="1" stroke="none"/><text x="12.0" y="44" font-size="20" font-weight="600" fill="#A4FFB6" text-anchor="start" data-field="current.location">Demo Station</text><text x="12.0" y="68" font-size="14" font-weight="400" fill="#65B879" text-anchor="start">Hourly</text><text x="18.0" y="112" font-size="14" font-weight="400" fill="#A4FFB6" text-anchor="start">Now</text><rect x="104.25" y="90" width="92.25" height="48" rx="0" fill="#05110A" fill-opacity="1" stroke="#246233"/><text x="110.25" y="112" font-size="14" font-weight="600" fill="#A4FFB6" text-anchor="start">[Hourly]</text><rect x="112.25" y="134" width="76.25" height="2" rx="0" fill="#A4FFB6" fill-opacity="1" stroke="none"/><text x="202.5" y="112" font-size="14" font-weight="400" fill="#A4FFB6" text-anchor="start">Daily</text><text x="294.75" y="112" font-size="14" font-weight="400" fill="#A4FFB6" text-anchor="start">Details</text><text x="12.0" y="168" font-size="20" font-weight="400" fill="#A4FFB6" text-anchor="start" data-field="window.rangeLabel">Wed, 9 AM–2 PM</text><rect x="12.0" y="184" width="369" height="48" rx="0" fill="#05110A" fill-opacity="1" stroke="#246233"/><text x="20.0" y="206" font-size="14" font-weight="400" fill="#A4FFB6" text-anchor="start">Choose forecast date</text><path d="M12.0 354h180.5" stroke="#246233"/><text x="22.0" y="266" font-size="14" font-weight="400" fill="#65B879" text-anchor="start" data-field="entries.0.time">9 AM</text><text x="22.0" y="286" font-size="14" font-weight="400" fill="#A4FFB6" text-anchor="start" data-field="entries.0.condition">Clear</text><text x="22.0" y="314" font-size="18" font-weight="400" fill="#A4FFB6" text-anchor="start" data-field="entries.0.temperature">19°</text><g aria-hidden="true" fill="none" stroke="#7CFF9B" stroke-width="1.6"><circle cx="164.5" cy="330" r="8"/><path d="M176.50 330.00l4.00 0.00"/><path d="M172.99 338.49l2.83 2.83"/><path d="M164.50 342.00l0.00 4.00"/><path d="M156.01 338.49l-2.83 2.83"/><path d="M152.50 330.00l-4.00 0.00"/><path d="M156.01 321.51l-2.83 -2.83"/><path d="M164.50 318.00l-0.00 -4.00"/><path d="M172.99 321.51l2.83 -2.83"/></g><path d="M200.5 354h180.5" stroke="#246233"/><text x="210.5" y="266" font-size="14" font-weight="400" fill="#65B879" text-anchor="start" data-field="entries.1.time">10 AM</text><text x="210.5" y="286" font-size="14" font-weight="400" fill="#A4FFB6" text-anchor="start" data-field="entries.1.condition">Clear</text><text x="210.5" y="314" font-size="18" font-weight="400" fill="#A4FFB6" text-anchor="start" data-field="entries.1.temperature">20°</text><g aria-hidden="true" fill="none" stroke="#7CFF9B" stroke-width="1.6"><circle cx="353.0" cy="330" r="8"/><path d="M365.00 330.00l4.00 0.00"/><path d="M361.49 338.49l2.83 2.83"/><path d="M353.00 342.00l0.00 4.00"/><path d="M344.51 338.49l-2.83 2.83"/><path d="M341.00 330.00l-4.00 0.00"/><path d="M344.51 321.51l-2.83 -2.83"/><path d="M353.00 318.00l-0.00 -4.00"/><path d="M361.49 321.51l2.83 -2.83"/></g><path d="M12.0 474h180.5" stroke="#246233"/><text x="22.0" y="386" font-size="14" font-weight="400" fill="#65B879" text-anchor="start" data-field="entries.2.time">11 AM</text><text x="22.0" y="406" font-size="14" font-weight="400" fill="#A4FFB6" text-anchor="start" data-field="entries.2.condition">Clear</text><text x="22.0" y="434" font-size="18" font-weight="400" fill="#A4FFB6" text-anchor="start" data-field="entries.2.temperature">20°</text><g aria-hidden="true" fill="none" stroke="#7CFF9B" stroke-width="1.6"><circle cx="164.5" cy="450" r="8"/><path d="M176.50 450.00l4.00 0.00"/><path d="M172.99 458.49l2.83 2.83"/><path d="M164.50 462.00l0.00 4.00"/><path d="M156.01 458.49l-2.83 2.83"/><path d="M152.50 450.00l-4.00 0.00"/><path d="M156.01 441.51l-2.83 -2.83"/><path d="M164.50 438.00l-0.00 -4.00"/><path d="M172.99 441.51l2.83 -2.83"/></g><path d="M200.5 474h180.5" stroke="#246233"/><text x="210.5" y="386" font-size="14" font-weight="400" fill="#65B879" text-anchor="start" data-field="entries.3.time">12 PM</text><text x="210.5" y="406" font-size="14" font-weight="400" fill="#A4FFB6" text-anchor="start" data-field="entries.3.condition">Clear</text><text x="210.5" y="434" font-size="18" font-weight="400" fill="#A4FFB6" text-anchor="start" data-field="entries.3.temperature">22°</text><g aria-hidden="true" fill="none" stroke="#7CFF9B" stroke-width="1.6"><circle cx="353.0" cy="450" r="8"/><path d="M365.00 450.00l4.00 0.00"/><path d="M361.49 458.49l2.83 2.83"/><path d="M353.00 462.00l0.00 4.00"/><path d="M344.51 458.49l-2.83 2.83"/><path d="M341.00 450.00l-4.00 0.00"/><path d="M344.51 441.51l-2.83 -2.83"/><path d="M353.00 438.00l-0.00 -4.00"/><path d="M361.49 441.51l2.83 -2.83"/></g><path d="M12.0 594h180.5" stroke="#246233"/><text x="22.0" y="506" font-size="14" font-weight="400" fill="#65B879" text-anchor="start" data-field="entries.4.time">1 PM</text><text x="22.0" y="526" font-size="14" font-weight="400" fill="#A4FFB6" text-anchor="start" data-field="entries.4.condition">Clear</text><text x="22.0" y="554" font-size="18" font-weight="400" fill="#A4FFB6" text-anchor="start" data-field="entries.4.temperature">23°</text><g aria-hidden="true" fill="none" stroke="#7CFF9B" stroke-width="1.6"><circle cx="164.5" cy="570" r="8"/><path d="M176.50 570.00l4.00 0.00"/><path d="M172.99 578.49l2.83 2.83"/><path d="M164.50 582.00l0.00 4.00"/><path d="M156.01 578.49l-2.83 2.83"/><path d="M152.50 570.00l-4.00 0.00"/><path d="M156.01 561.51l-2.83 -2.83"/><path d="M164.50 558.00l-0.00 -4.00"/><path d="M172.99 561.51l2.83 -2.83"/></g><path d="M200.5 594h180.5" stroke="#246233"/><text x="210.5" y="506" font-size="14" font-weight="400" fill="#65B879" text-anchor="start" data-field="entries.5.time">2 PM</text><text x="210.5" y="526" font-size="14" font-weight="400" fill="#A4FFB6" text-anchor="start" data-field="entries.5.condition">Clear</text><text x="210.5" y="554" font-size="18" font-weight="400" fill="#A4FFB6" text-anchor="start" data-field="entries.5.temperature">25°</text><g aria-hidden="true" fill="none" stroke="#7CFF9B" stroke-width="1.6"><circle cx="353.0" cy="570" r="8"/><path d="M365.00 570.00l4.00 0.00"/><path d="M361.49 578.49l2.83 2.83"/><path d="M353.00 582.00l0.00 4.00"/><path d="M344.51 578.49l-2.83 2.83"/><path d="M341.00 570.00l-4.00 0.00"/><path d="M344.51 561.51l-2.83 -2.83"/><path d="M353.00 558.00l-0.00 -4.00"/><path d="M361.49 561.51l2.83 -2.83"/></g><rect x="12.0" y="604" width="180.5" height="48" rx="0" fill="#020704" fill-opacity="1" stroke="#246233"/><text x="20.0" y="626" font-size="14" font-weight="400" fill="#65B879" text-anchor="start">Earlier · disabled</text><rect x="200.5" y="604" width="180.5" height="48" rx="0" fill="#05110A" fill-opacity="1" stroke="#246233"/><text x="208.5" y="626" font-size="14" font-weight="400" fill="#A4FFB6" text-anchor="start">Later</text><path d="M12.0 754h369" stroke="#246233"/><text x="22.0" y="684" font-size="12" font-weight="400" fill="#65B879" text-anchor="start" data-field="sourceLine">Model estimate · Offline development fixture</text><text x="22.0" y="708" font-size="12" font-weight="400" fill="#65B879" text-anchor="start" data-field="updatedLine">Updated 9:00 AM</text><text x="22.0" y="732" font-size="12" font-weight="400" fill="#65B879" text-anchor="start" data-field="status">Live weather data. Freshness: unknown.</text></svg>
