<svg xmlns="http://www.w3.org/2000/svg" width="393" height="852" viewBox="0 0 393 852" font-family="Noto Sans"><title>Minimal OLED / Now / primary — illustrative design reference</title><metadata>{&quot;theme&quot;: &quot;minimal_oled&quot;, &quot;page&quot;: &quot;Now&quot;, &quot;condition&quot;: &quot;primary&quot;, &quot;viewport&quot;: [393, 852], &quot;fontScale&quot;: 1, &quot;rtl&quot;: false, &quot;effects&quot;: &quot;Off&quot;, &quot;contrast&quot;: &quot;Standard&quot;, &quot;insets&quot;: [24, 0, 24, 0], &quot;bodyTop&quot;: 164, &quot;bodyHeight&quot;: 556, &quot;scrollMax&quot;: 0, &quot;font&quot;: &quot;Noto Sans&quot;, &quot;fixture&quot;: &quot;fixture.json&quot;, &quot;scrollOffset&quot;: 0}</metadata><rect x="0" y="0" width="393" height="852" rx="0" fill="#000000" fill-opacity="1" stroke="none"/><text x="18.0" y="44" font-size="20" font-weight="600" fill="#F5F5F5" text-anchor="start" data-field="current.location">Demo Station</text><text x="18.0" y="68" font-size="14" font-weight="400" fill="#9CA3AF" text-anchor="start">Now</text><rect x="18.0" y="98" width="89.25" height="48" rx="12" fill="#0D0D0D" fill-opacity="1" stroke="#2B2B2B"/><text x="24.0" y="120" font-size="14" font-weight="600" fill="#F5F5F5" text-anchor="start">Now</text><rect x="26.0" y="142" width="73.25" height="2" rx="0" fill="#F5F5F5" fill-opacity="1" stroke="none"/><text x="113.25" y="120" font-size="14" font-weight="400" fill="#F5F5F5" text-anchor="start">Hourly</text><text x="202.5" y="120" font-size="14" font-weight="400" fill="#F5F5F5" text-anchor="start">Daily</text><text x="291.75" y="120" font-size="14" font-weight="400" fill="#F5F5F5" text-anchor="start">Details</text><defs><clipPath id="body"><rect x="0" y="164" width="393" height="664"/></clipPath></defs><g clip-path="url(#body)"><text x="58.0" y="244" font-size="56" font-weight="500" fill="#F5F5F5" text-anchor="start" data-field="current.temperature">28°</text><g aria-hidden="true" fill="none" stroke="#F5C451" stroke-width="1.6"><circle cx="313.0" cy="214" r="8"/><path d="M325.00 214.00l4.00 0.00"/><path d="M321.49 222.49l2.83 2.83"/><path d="M313.00 226.00l0.00 4.00"/><path d="M304.51 222.49l-2.83 2.83"/><path d="M301.00 214.00l-4.00 0.00"/><path d="M304.51 205.51l-2.83 -2.83"/><path d="M313.00 202.00l-0.00 -4.00"/><path d="M321.49 205.51l2.83 -2.83"/><path fill="#000000" d="M303.0 229c-9 0-9-13 0-13c0-14 21-14 21 0c13-2 15 13 3 13Z"/></g><text x="58.0" y="270" font-size="18" font-weight="400" fill="#F5F5F5" text-anchor="start" data-field="current.condition">Partly cloudy</text><text x="58.0" y="300" font-size="16" font-weight="400" fill="#9CA3AF" text-anchor="start" data-field="current.apparent">Feels 29°</text><path d="M18.0 470h172.5" stroke="#2B2B2B"/><text x="26.0" y="424" font-size="14" font-weight="400" fill="#9CA3AF" text-anchor="start">Humidity</text><text x="26.0" y="454" font-size="16" font-weight="400" fill="#F5F5F5" text-anchor="start" data-field="current.humidity">56%</text><path d="M202.5 470h172.5" stroke="#2B2B2B"/><text x="210.5" y="424" font-size="14" font-weight="400" fill="#9CA3AF" text-anchor="start">Dew point</text><text x="210.5" y="454" font-size="16" font-weight="400" fill="#F5F5F5" text-anchor="start" data-field="current.dewPoint">18°</text><path d="M18.0 596h172.5" stroke="#2B2B2B"/><text x="26.0" y="504" font-size="14" font-weight="400" fill="#9CA3AF" text-anchor="start">Precipitation</text><text x="26.0" y="534" font-size="16" font-weight="400" fill="#F5F5F5" text-anchor="start" data-field="current.precipitationHeadline">No precipitation</text><text x="26.0" y="558" font-size="16" font-weight="400" fill="#F5F5F5" text-anchor="start" data-field="current.precipitationHeadline">indicated</text><text x="26.0" y="582" font-size="12" font-weight="400" fill="#9CA3AF" text-anchor="start" data-field="current.precipitationSupporting">Next 6h · 0.0 mm</text><path d="M202.5 596h172.5" stroke="#2B2B2B"/><text x="210.5" y="504" font-size="14" font-weight="400" fill="#9CA3AF" text-anchor="start">Wind</text><text x="210.5" y="534" font-size="16" font-weight="400" fill="#F5F5F5" text-anchor="start" data-field="current.windHeadline">13 km/h</text><text x="210.5" y="558" font-size="12" font-weight="400" fill="#9CA3AF" text-anchor="start" data-field="current.windSupporting">Gusts 23 · SW</text><path d="M18.0 702h357" stroke="#2B2B2B"/><text x="26.0" y="634" font-size="12" font-weight="400" fill="#9CA3AF" text-anchor="start" data-field="sourceLine">Model estimate · Offline development fixture</text><text x="26.0" y="658" font-size="12" font-weight="400" fill="#9CA3AF" text-anchor="start" data-field="updatedLine">Updated 9:00 AM</text><text x="26.0" y="682" font-size="12" font-weight="400" fill="#9CA3AF" text-anchor="start" data-field="status">Live weather data. Freshness: unknown.</text></g></svg>
